<?xml version="1.0" standalone="no"?>
<!DOCTYPE svg PUBLIC "-//W3C//DTD SVG 20010904//EN"
 "http://www.w3.org/TR/2001/REC-SVG-20010904/DTD/svg10.dtd">
<svg version="1.0" xmlns="http://www.w3.org/2000/svg"
 width="700.000000pt" height="700.000000pt" viewBox="0 0 700.000000 700.000000"
 preserveAspectRatio="xMidYMid meet">
<metadata>
Created by potrace 1.14, written by Peter Selinger 2001-2017
</metadata>
<g transform="translate(0.000000,700.000000) scale(0.100000,-0.100000)"
fill="#000000" stroke="none">
<path d="M6008 6990 c-152 -27 -280 -97 -441 -237 -84 -74 -140 -88 -337 -87
-104 1 -219 11 -350 28 -372 50 -596 75 -785 87 -200 12 -499 7 -665 -11 -440
-50 -864 -182 -1230 -384 -124 -69 -348 -214 -377 -245 -57 -62 -19 -171 64
-187 43 -8 62 0 199 92 511 340 1095 513 1726 514 248 0 483 -21 1008 -91 185
-25 274 -32 415 -32 265 -2 360 28 501 153 144 129 249 174 399 173 258 -2
508 -197 601 -468 22 -64 27 -97 27 -170 0 -143 -47 -248 -173 -390 -111 -124
-148 -224 -157 -425 -6 -142 4 -264 53 -632 115 -869 95 -1318 -81 -1853 -155
-474 -416 -887 -825 -1309 -603 -621 -1240 -958 -1991 -1053 -168 -21 -626
-24 -809 -5 -69 7 -262 30 -430 52 -425 55 -527 64 -665 57 -192 -10 -306 -51
-413 -150 -200 -184 -391 -228 -608 -139 -186 75 -332 230 -400 423 -21 58
-27 93 -27 164 -1 150 44 255 173 399 72 81 109 147 136 246 29 102 24 388
-10 640 -42 312 -74 594 -86 752 -63 891 168 1626 727 2314 40 51 78 106 83
124 19 68 -39 140 -114 140 -37 0 -46 -6 -98 -60 -117 -124 -316 -409 -436
-625 -163 -292 -294 -669 -351 -1006 -32 -186 -42 -292 -48 -514 -8 -307 11
-542 93 -1155 17 -131 27 -246 28 -350 1 -203 -12 -251 -96 -347 -155 -177
-223 -325 -234 -508 -15 -226 95 -487 278 -661 259 -249 631 -318 921 -173 83
42 128 74 214 151 143 129 242 134 898 49 451 -59 541 -66 860 -66 364 0 585
25 870 100 490 128 920 353 1352 709 156 129 491 469 617 626 554 695 795
1405 773 2280 -7 247 -21 405 -72 792 -79 595 -73 718 42 850 163 186 227 326
239 518 15 219 -98 484 -278 656 -109 105 -260 190 -403 228 -72 20 -241 28
-307 16z"/>
<path d="M3598 6304 c-53 -28 -72 -98 -43 -154 30 -58 39 -60 278 -60 l219 0
34 34 c28 28 34 41 34 78 0 50 -18 82 -60 103 -42 22 -422 21 -462 -1z"/>
<path d="M2990 6211 c-164 -49 -270 -90 -446 -176 -581 -284 -1170 -845 -1503
-1431 -56 -99 -63 -139 -32 -190 32 -53 113 -68 162 -31 9 7 53 74 98 149 175
294 416 580 701 832 352 311 705 514 1088 625 57 16 112 37 122 46 49 44 50
122 1 169 -40 39 -81 40 -191 7z"/>
<path d="M1414 5816 c-26 -26 -34 -42 -34 -71 0 -109 126 -158 201 -79 19 20
24 36 24 76 0 43 -4 53 -33 79 -26 23 -42 29 -78 29 -39 0 -51 -5 -80 -34z"/>
<path d="M3271 1776 c-33 -18 -50 -53 -51 -102 -1 -104 128 -152 194 -73 34
40 41 70 26 113 -21 66 -106 97 -169 62z"/>
<path d="M3678 1520 c-56 -43 -61 -125 -10 -173 77 -73 192 -21 192 87 0 30
-7 45 -34 72 -29 29 -41 34 -79 34 -29 0 -53 -7 -69 -20z"/>
<path d="M2923 1427 c-32 -30 -36 -39 -36 -82 0 -43 4 -52 36 -82 63 -58 149
-38 183 42 29 70 -29 155 -107 155 -31 0 -47 -7 -76 -33z"/>
<path d="M2485 1293 c-61 -11 -95 -54 -95 -118 0 -80 79 -132 153 -102 39 17
77 68 77 105 0 27 -22 73 -43 91 -20 16 -67 28 -92 24z"/>
<path d="M3334 1176 c-26 -26 -34 -42 -34 -70 0 -49 23 -92 60 -111 102 -53
208 53 155 155 -21 42 -53 60 -103 60 -37 0 -50 -6 -78 -34z"/>
<path d="M2884 1038 c-50 -13 -79 -52 -79 -108 0 -57 28 -94 82 -109 98 -27
177 75 129 167 -22 43 -78 65 -132 50z"/>
</g>
</svg>
